# Made in Blockbench 5.0.7
mtllib rock-perfect.mtl

o mesh
v 0.5 0.5 0.5
v 0.5 0.5 -0.5
v 0.5 0 0.5
v 0.5 0 -0.5
v -0.5 0.5 0.5
v -0.5 0.5 -0.5
v -0.5 0 0.5
v -0.5 0 -0.5
v -0.16666666666666674 0.5 0.5
v -0.16666666666666674 0.5 -0.5
v 0.16666666666666663 0.5 0.5
v 0.16666666666666663 0.5 -0.5
v -0.16666666666666674 0 -0.5
v 0.16666666666666663 0 -0.5
v -0.16666666666666674 0 0.5
v 0.16666666666666663 0 0.5
v 0.16666666666666663 0.25 -0.5
v 0.5 0.25 -0.5
v 0.5 0.25 0.5
v 0.16666666666666663 0.25 0.5
v -0.16666666666666674 0.25 0.5
v -0.5 0.25 0.5
v -0.5 0.25 -0.5
v -0.16666666666666674 0.25 -0.5
v -0.5 0.25 -0.16666666666666674
v -0.5 0.5 -0.16666666666666674
v -0.5 0.25 0.16666666666666663
v -0.5 0.5 0.16666666666666663
v -0.16666666666666674 0.5 -0.16666666666666674
v -0.16666666666666674 0.5 0.16666666666666663
v 0.16666666666666663 0.5 -0.16666666666666674
v 0.16666666666666663 0.5 0.16666666666666663
v 0.5 0.5 -0.16666666666666674
v 0.5 0.5 0.16666666666666663
v 0.5 0.25 -0.16666666666666674
v 0.5 0.25 0.16666666666666663
v 0.5 0 -0.16666666666666674
v 0.5 0 0.16666666666666663
v 0.16666666666666663 0 -0.16666666666666674
v 0.16666666666666663 0 0.16666666666666663
v -0.16666666666666674 0 -0.16666666666666674
v -0.16666666666666674 0 0.16666666666666663
v -0.5 0 -0.16666666666666674
v -0.5 0 0.16666666666666663
vt 0 0.75
vt 0.33333333333333337 0.75
vt 0.33333333333333337 1
vt 0 1
vt 1 1
vt 0.6666666666666666 1
vt 0.6666666666666666 0.75
vt 1 0.75
vt 1 0
vt 1 0.33333333333333337
vt 0.6666666666666666 0.33333333333333337
vt 0.6666666666666666 0
vt 0.6666666666666666 1
vt 0.6666666666666666 0.6666666666666666
vt 1 0.6666666666666666
vt 1 1
vt 0.6666666666666666 1
vt 0.6666666666666666 0.75
vt 1 0.75
vt 1 1
vt 0 1
vt 0 0.75
vt 0.33333333333333337 0.75
vt 0.33333333333333337 1
vt 0.33333333333333326 0
vt 0.33333333333333326 0.33333333333333337
vt 0 0.33333333333333337
vt 0 0
vt 0.6666666666666666 0
vt 0.6666666666666666 0.33333333333333337
vt 0.33333333333333326 0.33333333333333337
vt 0.33333333333333326 0
vt 0.6666666666666667 1
vt 0.6666666666666667 0.75
vt 1 0.75
vt 1 1
vt 0.33333333333333337 1
vt 0.33333333333333337 0.75
vt 0.6666666666666667 0.75
vt 0.6666666666666667 1
vt 0 1
vt 0 0.6666666666666666
vt 0.33333333333333326 0.6666666666666666
vt 0.33333333333333326 1
vt 0.33333333333333326 1
vt 0.33333333333333326 0.6666666666666666
vt 0.6666666666666666 0.6666666666666666
vt 0.6666666666666666 1
vt 0 1
vt 0 0.75
vt 0.33333333333333326 0.75
vt 0.33333333333333326 1
vt 0.33333333333333326 1
vt 0.33333333333333326 0.75
vt 0.6666666666666666 0.75
vt 0.6666666666666666 1
vt 0.33333333333333337 0.5
vt 0.33333333333333337 0.75
vt 0 0.75
vt 0 0.5
vt 0 0.5
vt 0.33333333333333337 0.5
vt 0.33333333333333337 0.75
vt 0 0.75
vt 1 0.5
vt 1 0.75
vt 0.6666666666666666 0.75
vt 0.6666666666666666 0.5
vt 0.6666666666666666 0.5
vt 0.6666666666666666 0.75
vt 0.33333333333333326 0.75
vt 0.33333333333333326 0.5
vt 0.33333333333333326 0.5
vt 0.33333333333333326 0.75
vt 0 0.75
vt 0 0.5
vt 1 0.75
vt 0.6666666666666666 0.75
vt 0.6666666666666666 0.5
vt 1 0.5
vt 1 0.5
vt 1 0.75
vt 0.6666666666666667 0.75
vt 0.6666666666666667 0.5
vt 0.6666666666666667 0.5
vt 0.6666666666666667 0.75
vt 0.33333333333333337 0.75
vt 0.33333333333333337 0.5
vt 0 0.75
vt 0.33333333333333326 0.75
vt 0.33333333333333326 1
vt 0 1
vt 0.33333333333333326 0.75
vt 0.6666666666666666 0.75
vt 0.6666666666666666 1
vt 0.33333333333333326 1
vt 0 1
vt 0 0.6666666666666667
vt 0.33333333333333326 0.6666666666666667
vt 0.33333333333333326 1
vt 0 0.6666666666666667
vt 0 0.33333333333333337
vt 0.33333333333333326 0.33333333333333337
vt 0.33333333333333326 0.6666666666666667
vt 0.33333333333333326 1
vt 0.33333333333333326 0.6666666666666667
vt 0.6666666666666666 0.6666666666666667
vt 0.6666666666666666 1
vt 0.33333333333333326 0.6666666666666667
vt 0.33333333333333326 0.33333333333333337
vt 0.6666666666666666 0.33333333333333337
vt 0.6666666666666666 0.6666666666666667
vt 0.6666666666666666 1
vt 0.6666666666666666 0.6666666666666667
vt 1 0.6666666666666667
vt 1 1
vt 0.6666666666666666 0.6666666666666667
vt 0.6666666666666666 0.33333333333333337
vt 1 0.33333333333333337
vt 1 0.6666666666666667
vt 1 1
vt 0.6666666666666667 1
vt 0.6666666666666667 0.75
vt 1 0.75
vt 0.6666666666666667 1
vt 0.33333333333333337 1
vt 0.33333333333333337 0.75
vt 0.6666666666666667 0.75
vt 1 0.75
vt 0.6666666666666667 0.75
vt 0.6666666666666667 0.5
vt 1 0.5
vt 0.6666666666666667 0.75
vt 0.33333333333333337 0.75
vt 0.33333333333333337 0.5
vt 0.6666666666666667 0.5
vt 1 0
vt 1 0.33333333333333326
vt 0.6666666666666666 0.33333333333333326
vt 0.6666666666666666 0
vt 1 0.33333333333333326
vt 1 0.6666666666666666
vt 0.6666666666666666 0.6666666666666666
vt 0.6666666666666666 0.33333333333333326
vt 0.6666666666666666 0
vt 0.6666666666666666 0.33333333333333326
vt 0.33333333333333326 0.33333333333333326
vt 0.33333333333333326 0
vt 0.6666666666666666 0.33333333333333326
vt 0.6666666666666666 0.6666666666666666
vt 0.33333333333333326 0.6666666666666666
vt 0.33333333333333326 0.33333333333333326
vt 0.33333333333333326 0
vt 0.33333333333333326 0.33333333333333326
vt 0 0.33333333333333326
vt 0 0
vt 0.33333333333333326 0.33333333333333326
vt 0.33333333333333326 0.6666666666666666
vt 0 0.6666666666666666
vt 0 0.33333333333333326
vt 0 0.5
vt 0.33333333333333326 0.5
vt 0.33333333333333326 0.75
vt 0 0.75
vt 0.33333333333333326 0.5
vt 0.6666666666666666 0.5
vt 0.6666666666666666 0.75
vt 0.33333333333333326 0.75
vn 1 0 0
vn -1 0 0
vn 0 1 0
vn 0 -1 0
vn 0 0 1
vn 0 0 -1
vn 0 1 0
vn 0 1 0
vn 0 0 -1
vn 0 0 -1
vn 0 -1 0
vn 0 -1 0
vn 0 0 1
vn 0 0 1
vn 0 0 -1
vn 1 0 0
vn 0 0 1
vn 0 0 1
vn 0 0 1
vn -1 0 0
vn 0 0 -1
vn 0 0 -1
vn -1 0 0
vn -1 0 0
vn 0 1 0
vn 0 1 0
vn 0 1 0
vn 0 1 0
vn 0 1 0
vn 0 1 0
vn 1 0 0
vn 1 0 0
vn 1 0 0
vn 1 0 0
vn 0 -1 0
vn 0 -1 0
vn 0 -1 0
vn 0 -1 0
vn 0 -1 0
vn 0 -1 0
vn -1 0 0
vn -1 0 0
usemtl none
f 19/1/1 36/2/1 34/3/1 1/4/1
f 5/5/2 28/6/2 27/7/2 22/8/2
f 1/9/3 34/10/3 32/11/3 11/12/3
f 16/13/4 40/14/4 38/15/4 3/16/4
f 11/17/5 20/18/5 19/19/5 1/20/5
f 2/21/6 18/22/6 17/23/6 12/24/6
f 9/25/7 30/26/7 28/27/7 5/28/7
f 11/29/8 32/30/8 30/31/8 9/32/8
f 10/33/9 24/34/9 23/35/9 6/36/9
f 12/37/10 17/38/10 24/39/10 10/40/10
f 7/41/11 44/42/11 42/43/11 15/44/11
f 15/45/12 42/46/12 40/47/12 16/48/12
f 5/49/13 22/50/13 21/51/13 9/52/13
f 9/53/14 21/54/14 20/55/14 11/56/14
f 14/57/15 17/58/15 18/59/15 4/60/15
f 3/61/16 38/62/16 36/63/16 19/64/16
f 3/65/17 19/66/17 20/67/17 16/68/17
f 16/69/18 20/70/18 21/71/18 15/72/18
f 15/73/19 21/74/19 22/75/19 7/76/19
f 22/77/20 27/78/20 44/79/20 7/80/20
f 8/81/21 23/82/21 24/83/21 13/84/21
f 13/85/22 24/86/22 17/87/22 14/88/22
f 23/89/23 25/90/23 26/91/23 6/92/23
f 25/93/24 27/94/24 28/95/24 26/96/24
f 6/97/25 26/98/25 29/99/25 10/100/25
f 26/101/26 28/102/26 30/103/26 29/104/26
f 10/105/27 29/106/27 31/107/27 12/108/27
f 29/109/28 30/110/28 32/111/28 31/112/28
f 12/113/29 31/114/29 33/115/29 2/116/29
f 31/117/30 32/118/30 34/119/30 33/120/30
f 2/121/31 33/122/31 35/123/31 18/124/31
f 33/125/32 34/126/32 36/127/32 35/128/32
f 18/129/33 35/130/33 37/131/33 4/132/33
f 35/133/34 36/134/34 38/135/34 37/136/34
f 4/137/35 37/138/35 39/139/35 14/140/35
f 37/141/36 38/142/36 40/143/36 39/144/36
f 14/145/37 39/146/37 41/147/37 13/148/37
f 39/149/38 40/150/38 42/151/38 41/152/38
f 13/153/39 41/154/39 43/155/39 8/156/39
f 41/157/40 42/158/40 44/159/40 43/160/40
f 8/161/41 43/162/41 25/163/41 23/164/41
f 43/165/42 44/166/42 27/167/42 25/168/42